<svg width="99" height="44" viewBox="0 0 99 44" fill="none" xmlns="http://www.w3.org/2000/svg">
<path d="M9.97134 0.882568H19.1238C19.3242 0.882568 19.4862 0.953131 19.6108 1.09339C19.7345 1.23539 19.7842 1.40527 19.7598 1.60651L14.8089 42.3936C14.7845 42.5958 14.6931 42.7656 14.5354 42.9068C14.3768 43.0488 14.1974 43.1176 13.997 43.1176H5.08584C4.88373 43.1176 4.72256 43.0479 4.59886 42.9068C4.47428 42.7665 4.42549 42.5958 4.44989 42.3936L8.46335 9.3294C8.47293 9.24925 8.44244 9.1691 8.37188 9.08808C8.30044 9.00794 8.22291 8.9879 8.13754 9.0271L1.96706 10.6562L1.71791 10.7172C1.3555 10.7172 1.20131 10.4968 1.25532 10.0533L1.70397 4.86467C1.75276 4.46306 1.96793 4.1808 2.34951 4.01964L9.04355 1.0629C9.2596 0.942677 9.56886 0.882568 9.97134 0.882568Z" fill="url(#paint0_linear_5711_593)"/>
<path d="M24.9319 31.9944C23.903 31.4273 23.1529 30.6319 22.6825 29.6083C22.2112 28.5856 22.057 27.4034 22.2199 26.0644L23.0022 19.6186C23.1651 18.2788 23.6051 17.0984 24.3255 16.0747C25.0451 15.052 25.9868 14.261 27.1525 13.7025C28.3172 13.1441 29.6257 12.8654 31.0771 12.8654C32.5093 12.8654 33.7376 13.1302 34.7612 13.6607C35.7849 14.1904 36.5402 14.944 37.0263 15.9205C37.5115 16.8971 37.677 18.027 37.522 19.3111C37.5019 19.4784 37.3773 19.5803 37.15 19.6178L33.8613 19.8129H33.8056C33.6191 19.8129 33.539 19.711 33.5634 19.5063C33.6827 18.5201 33.4763 17.7299 32.9448 17.1341C32.4126 16.5391 31.6529 16.2411 30.6676 16.2411C29.6632 16.2411 28.8216 16.5391 28.1447 17.1341C27.4678 17.7299 27.0697 18.5201 26.9504 19.5063L26.1341 26.2317C26.0165 27.1987 26.2238 27.981 26.7561 28.576C27.2884 29.1719 28.0576 29.4689 29.0621 29.4689C30.0473 29.4689 30.8793 29.1719 31.5562 28.576C32.2322 27.981 32.6304 27.1987 32.748 26.2317C32.7724 26.0278 32.8961 25.925 33.12 25.925L36.3677 26.0644C36.4609 26.0644 36.5358 26.0923 36.5942 26.148C36.6525 26.2038 36.6778 26.2691 36.6682 26.3432C36.5123 27.6264 36.0723 28.7615 35.3484 29.7477C34.6236 30.7339 33.6853 31.4961 32.531 32.0354C31.3776 32.5755 30.0839 32.8447 28.6517 32.8447C27.2004 32.8447 25.9598 32.5616 24.9319 31.9944ZM48.9795 18.4739C49.1198 18.548 49.1581 18.6882 49.0963 18.893L48.124 22.0736C48.0779 22.2975 47.9394 22.3628 47.7094 22.2687C47.4411 22.1764 47.1213 22.1293 46.7493 22.1293C46.6004 22.1293 46.3939 22.1476 46.1291 22.1851C45.4531 22.2409 44.8554 22.4874 44.3371 22.9247C43.8187 23.362 43.5156 23.9431 43.4276 24.6688L42.5033 32.2871C42.492 32.3804 42.4501 32.4596 42.377 32.5241C42.3029 32.5903 42.221 32.6217 42.1278 32.6217H38.8627C38.7695 32.6217 38.6945 32.5894 38.637 32.5241C38.5796 32.4596 38.5569 32.3804 38.5682 32.2871L40.2278 18.6133C40.2391 18.5201 40.2809 18.4417 40.3541 18.3755C40.4273 18.311 40.5101 18.2779 40.6033 18.2779H43.8684C43.9616 18.2779 44.0357 18.3101 44.094 18.3755C44.1507 18.4417 44.1742 18.5201 44.1629 18.6133L44.0339 19.6735C44.027 19.7293 44.0409 19.7667 44.0766 19.785C44.1115 19.8033 44.1402 19.7946 44.1637 19.7572C45.0619 18.6403 46.1526 18.0828 47.4367 18.0828C48.1066 18.0836 48.6206 18.2143 48.9795 18.4739ZM51.2916 31.6172C50.275 30.7992 49.6477 29.6824 49.4099 28.2693C49.2548 27.3947 49.24 26.446 49.3646 25.4232C49.4979 24.3256 49.747 23.3394 50.1147 22.4656C50.7097 21.0883 51.6131 20.0098 52.8231 19.2284C54.034 18.4469 55.4209 18.0566 56.9838 18.0566C58.5092 18.0566 59.7646 18.4434 60.7507 19.2144C61.7352 19.9863 62.3685 21.0604 62.6473 22.4377C62.832 23.3681 62.8624 24.3447 62.7379 25.3675C62.6159 26.3719 62.3711 27.3119 62.0052 28.1857C61.4198 29.6371 60.5234 30.7765 59.3159 31.6041C58.1085 32.4326 56.7242 32.8456 55.1605 32.8456C53.5985 32.8447 52.3083 32.437 51.2916 31.6172ZM57.2016 28.9105C57.6746 28.5385 58.0431 28.0271 58.3089 27.3755C58.5301 26.7805 58.6835 26.1289 58.7688 25.4223C58.8638 24.6409 58.8699 23.9806 58.7863 23.4404C58.6582 22.8088 58.4021 22.3158 58.017 21.9612C57.6311 21.6084 57.1319 21.4315 56.5186 21.4315C55.8861 21.4315 55.3391 21.6084 54.8782 21.9612C54.4165 22.3149 54.0541 22.808 53.791 23.4404C53.588 23.8874 53.4338 24.5477 53.3275 25.4223C53.2256 26.2595 53.2117 26.9103 53.2857 27.3755C53.3929 28.0271 53.642 28.5376 54.0349 28.9105C54.4269 29.2825 54.9383 29.4689 55.5708 29.4689C56.1841 29.4689 56.7277 29.2825 57.2016 28.9105ZM74.8479 18.4739C74.9882 18.548 75.0265 18.6882 74.9647 18.893L73.9925 22.0736C73.9463 22.2975 73.8078 22.3628 73.5778 22.2687C73.3095 22.1764 72.9897 22.1293 72.6178 22.1293C72.4688 22.1293 72.2623 22.1476 71.9975 22.1851C71.3215 22.2409 70.7238 22.4874 70.2055 22.9247C69.6872 23.362 69.384 23.9431 69.296 24.6688L68.3717 32.2871C68.3604 32.3804 68.3186 32.4596 68.2454 32.5241C68.1713 32.5903 68.0894 32.6217 67.9962 32.6217H64.7311C64.6379 32.6217 64.563 32.5894 64.5055 32.5241C64.448 32.4596 64.4253 32.3804 64.4366 32.2871L66.0962 18.6133C66.1075 18.5201 66.1493 18.4417 66.2225 18.3755C66.2957 18.311 66.3785 18.2779 66.4717 18.2779H69.7368C69.83 18.2779 69.9041 18.3101 69.9624 18.3755C70.0191 18.4417 70.0426 18.5201 70.0313 18.6133L69.9023 19.6735C69.8954 19.7293 69.9093 19.7667 69.945 19.785C69.9799 19.8033 70.0086 19.7946 70.0321 19.7572C70.9303 18.6403 72.021 18.0828 73.3051 18.0828C73.9742 18.0836 74.489 18.2143 74.8479 18.4739ZM88.2918 26.3432C88.2456 26.5662 88.1115 26.6777 87.8884 26.6777H79.2656C79.1541 26.6777 79.1114 26.7239 79.1376 26.8171C79.148 27.1891 79.2046 27.5611 79.3092 27.9339C79.6664 28.9758 80.5889 29.4959 82.0778 29.4959C83.2704 29.4776 84.2687 28.9941 85.072 28.0446C85.1591 27.9331 85.2497 27.8773 85.3429 27.8773C85.3995 27.8773 85.4588 27.9148 85.525 27.9888L87.2934 29.9698C87.3753 30.0631 87.4119 30.1467 87.4023 30.2216C87.398 30.2591 87.3509 30.3331 87.2638 30.4446C86.5573 31.2078 85.6948 31.7975 84.6764 32.2166C83.6581 32.6356 82.5726 32.8447 81.4192 32.8447C79.8188 32.8447 78.5095 32.4823 77.4911 31.7566C76.4718 31.0309 75.7993 30.0169 75.4743 28.7154C75.1964 27.785 75.1494 26.5662 75.3323 25.0599C75.4569 24.0372 75.7052 23.1347 76.0789 22.3532C76.6669 21.0325 77.5433 19.981 78.709 19.2005C79.8728 18.419 81.19 18.0288 82.6597 18.0288C84.5196 18.0288 85.9475 18.568 86.9423 19.6474C87.9372 20.7268 88.446 22.1685 88.4686 23.9727C88.4939 24.6784 88.4355 25.4694 88.2918 26.3432ZM79.7587 23.0789C79.6542 23.3202 79.554 23.6182 79.4547 23.9719C79.4433 24.0651 79.4843 24.1112 79.5775 24.1112H84.4055C84.517 24.1112 84.5597 24.0651 84.5344 23.9719C84.5066 23.4326 84.4918 23.1721 84.49 23.1904C84.3907 22.632 84.1503 22.1999 83.7687 21.8924C83.3871 21.5849 82.8897 21.4324 82.2755 21.4324C81.102 21.4324 80.264 21.9812 79.7587 23.0789Z" fill="url(#paint1_linear_5711_593)"/>
<path d="M21.0595 43.0991C21.0421 43.0791 21.0343 43.0547 21.0378 43.0251L21.7521 37.1403C21.7556 37.1116 21.7687 37.0863 21.7913 37.0663C21.814 37.0462 21.8401 37.0358 21.8689 37.0358H22.8873C22.916 37.0358 22.9395 37.0462 22.9569 37.0663C22.9744 37.0863 22.9822 37.1116 22.9787 37.1403L22.2644 43.0251C22.2609 43.0538 22.2478 43.0791 22.2252 43.0991C22.2025 43.1191 22.1764 43.1296 22.1476 43.1296H21.1292C21.1005 43.1296 21.077 43.1191 21.0595 43.0991ZM27.1917 39.0116C27.4417 39.2965 27.5367 39.6815 27.4774 40.1694L27.1307 43.0251C27.1272 43.0538 27.1142 43.0791 27.0915 43.0991C27.0689 43.1191 27.0427 43.1296 27.014 43.1296H25.9956C25.966 43.1296 25.9433 43.1191 25.925 43.0991C25.9076 43.0791 25.8997 43.0547 25.9032 43.0251L26.2195 40.422C26.2473 40.1903 26.2055 40.0012 26.0923 39.8566C25.9799 39.712 25.8152 39.6388 25.6009 39.6388C25.3866 39.6388 25.2046 39.7111 25.0565 39.8566C24.9084 40.0021 24.8204 40.1903 24.7916 40.422L24.4754 43.0251C24.4719 43.0538 24.4588 43.0791 24.4362 43.0991C24.4135 43.1191 24.3874 43.1296 24.3587 43.1296H23.3403C23.3115 43.1296 23.288 43.1191 23.2697 43.0991C23.2514 43.0791 23.2444 43.0547 23.2479 43.0251L23.7663 38.759C23.7697 38.7302 23.7828 38.7058 23.8055 38.6849C23.8281 38.6649 23.8543 38.6544 23.883 38.6544H24.9014C24.9301 38.6544 24.9537 38.6649 24.972 38.6849C24.9894 38.7049 24.9972 38.7302 24.9937 38.759L24.9563 39.0639C24.9537 39.0813 24.9589 39.0926 24.9693 39.0987C24.9807 39.1048 24.9894 39.1013 24.9963 39.09C25.2751 38.7537 25.6497 38.5847 26.1202 38.5847C26.5854 38.5856 26.9425 38.7276 27.1917 39.0116ZM31.5153 37.0663C31.5379 37.0462 31.5641 37.0358 31.5928 37.0358H32.6112C32.64 37.0358 32.6635 37.0462 32.6818 37.0663C32.6992 37.0863 32.707 37.1116 32.7027 37.1403L31.9883 43.0251C31.9848 43.0538 31.9718 43.0791 31.9491 43.0991C31.9265 43.1191 31.9003 43.1296 31.8716 43.1296H30.8532C30.8236 43.1296 30.8009 43.1191 30.7826 43.0991C30.7652 43.0791 30.7574 43.0547 30.7609 43.0251L30.7957 42.7376C30.7983 42.7201 30.7931 42.7097 30.7826 42.7071C30.7713 42.7045 30.7591 42.7088 30.746 42.7201C30.4638 43.0399 30.1101 43.1993 29.6867 43.1993C29.2807 43.1993 28.9445 43.086 28.6788 42.8595C28.4131 42.633 28.2406 42.3229 28.1604 41.9274C28.0986 41.626 28.0916 41.2749 28.1404 40.8741C28.19 40.4621 28.2859 40.1023 28.4279 39.7948C28.6065 39.4237 28.853 39.1292 29.1666 38.9105C29.4802 38.6927 29.8487 38.5838 30.273 38.5838C30.6912 38.5838 30.9978 38.7293 31.1947 39.0194C31.2043 39.0369 31.2147 39.043 31.2278 39.0369C31.24 39.0308 31.247 39.0194 31.2496 39.002L31.4761 37.1395C31.4796 37.1116 31.4926 37.0863 31.5153 37.0663ZM31.0117 40.8916C31.0588 40.503 31.0318 40.1981 30.9307 39.9777C30.8244 39.7512 30.6441 39.638 30.3889 39.638C30.1162 39.638 29.8967 39.7512 29.7294 39.9777C29.5569 40.2042 29.4471 40.5117 29.4001 40.9003C29.3574 41.2487 29.3835 41.5388 29.4776 41.7714C29.5926 42.0215 29.7921 42.146 30.0761 42.146C30.3375 42.146 30.5553 42.0215 30.7312 41.7714C30.8732 41.5563 30.9664 41.2636 31.0117 40.8916ZM32.9684 43.0991C32.951 43.0791 32.9431 43.0547 32.9466 43.0251L33.4658 38.7502C33.4693 38.7215 33.4824 38.6971 33.505 38.6762C33.5277 38.6562 33.5538 38.6457 33.5826 38.6457H34.601C34.6297 38.6457 34.6532 38.6562 34.6715 38.6762C34.6889 38.6962 34.6968 38.7206 34.6924 38.7502L34.1732 43.0251C34.1697 43.0538 34.1567 43.0791 34.134 43.0991C34.1114 43.1191 34.0852 43.1296 34.0565 43.1296H33.0381C33.0093 43.1296 32.9858 43.1191 32.9684 43.0991ZM33.6976 37.954C33.5826 37.8233 33.5373 37.6595 33.5617 37.4618C33.586 37.2588 33.6706 37.0933 33.8134 36.9652C33.9563 36.838 34.1297 36.7736 34.3326 36.7736C34.5356 36.7736 34.6933 36.8372 34.8057 36.9652C34.9181 37.0933 34.9616 37.2588 34.9372 37.4618C34.9137 37.6587 34.8283 37.8233 34.682 37.954C34.5356 38.0847 34.364 38.15 34.1662 38.15C33.9676 38.15 33.8117 38.0847 33.6976 37.954ZM38.4411 38.7807C38.7216 38.9114 38.9307 39.09 39.0683 39.3165C39.2059 39.543 39.2582 39.7956 39.2242 40.0735L38.8662 43.0251C38.8627 43.0538 38.8496 43.0791 38.827 43.0991C38.8043 43.1191 38.7782 43.1296 38.7494 43.1296H37.7311C37.7023 43.1296 37.6788 43.1191 37.6605 43.0991C37.6422 43.0791 37.6352 43.0547 37.6387 43.0251L37.6736 42.7376C37.6762 42.7201 37.6709 42.7088 37.6605 42.7027C37.6492 42.6966 37.637 42.7027 37.623 42.7201C37.3408 43.0399 36.9296 43.1993 36.3895 43.1993C35.9365 43.1993 35.5845 43.0895 35.3327 42.8682C35.081 42.6478 34.9817 42.3229 35.0331 41.8934C35.0871 41.4465 35.2857 41.0998 35.6298 40.8532C35.973 40.6067 36.4348 40.483 37.015 40.483H37.9027C37.9314 40.483 37.948 40.4682 37.9515 40.4394L37.975 40.2478C37.9985 40.0561 37.9584 39.9071 37.8556 39.7991C37.752 39.692 37.5847 39.638 37.353 39.638C37.1735 39.638 37.0202 39.6702 36.893 39.7338C36.7667 39.7974 36.6787 39.8871 36.6299 40.003C36.6046 40.0674 36.5637 40.0962 36.5062 40.0901L35.4695 39.9507C35.4016 39.9394 35.3728 39.9132 35.3833 39.8723C35.4355 39.6284 35.5601 39.408 35.7553 39.2111C35.9504 39.0142 36.1952 38.86 36.4905 38.7494C36.785 38.6396 37.1073 38.5838 37.4549 38.5838C37.8321 38.5856 38.1605 38.6509 38.4411 38.7807ZM37.4915 42.0851C37.6823 41.9518 37.7894 41.7802 37.8147 41.5711L37.853 41.2575C37.8565 41.2287 37.8434 41.2139 37.8147 41.2139H37.1883C36.927 41.2139 36.7161 41.2636 36.5567 41.362C36.3964 41.4604 36.3058 41.6007 36.284 41.7802C36.2649 41.937 36.305 42.0607 36.4043 42.1504C36.5036 42.241 36.6465 42.2854 36.832 42.2854C37.0812 42.2846 37.3016 42.2184 37.4915 42.0851ZM43.6715 39.0116C43.9216 39.2965 44.0165 39.6815 43.9573 40.1694L43.6106 43.0251C43.6071 43.0538 43.594 43.0791 43.5714 43.0991C43.5487 43.1191 43.5226 43.1296 43.4938 43.1296H42.4754C42.4458 43.1296 42.4232 43.1191 42.4049 43.0991C42.3866 43.0791 42.3796 43.0547 42.3831 43.0251L42.6993 40.422C42.7272 40.1903 42.6854 40.0012 42.5721 39.8566C42.4597 39.712 42.2951 39.6388 42.0808 39.6388C41.8665 39.6388 41.6844 39.7111 41.5363 39.8566C41.3882 40.0021 41.3002 40.1903 41.2715 40.422L40.9552 43.0251C40.9518 43.0538 40.9387 43.0791 40.916 43.0991C40.8934 43.1191 40.8673 43.1296 40.8385 43.1296H39.8201C39.7914 43.1296 39.7678 43.1191 39.7495 43.0991C39.7313 43.0791 39.7243 43.0547 39.7278 43.0251L40.2461 38.759C40.2496 38.7302 40.2627 38.7058 40.2853 38.6849C40.308 38.6649 40.3341 38.6544 40.3629 38.6544H41.3812C41.41 38.6544 41.4335 38.6649 41.4509 38.6849C41.4684 38.7049 41.4762 38.7302 41.4727 38.759L41.4353 39.0639C41.4335 39.0813 41.4379 39.0926 41.4483 39.0987C41.4596 39.1048 41.4684 39.1013 41.4753 39.09C41.7541 38.7537 42.1287 38.5847 42.5991 38.5847C43.0643 38.5856 43.4215 38.7276 43.6715 39.0116ZM45.2553 43.0251C44.9783 42.9153 44.7727 42.7611 44.6368 42.5633C44.5009 42.3664 44.4486 42.1426 44.4791 41.8934L44.4896 41.8063C44.493 41.7775 44.5061 41.7532 44.5288 41.7322C44.5514 41.7122 44.5776 41.7017 44.6063 41.7017H45.5724C45.6012 41.7017 45.6247 41.7122 45.643 41.7322C45.6604 41.7532 45.6683 41.7775 45.6648 41.8063L45.6639 41.815C45.6482 41.9431 45.7066 42.052 45.8381 42.1417C45.9697 42.2314 46.1422 42.2767 46.3573 42.2767C46.5542 42.2767 46.7189 42.2375 46.8504 42.1591C46.982 42.0807 47.0543 41.984 47.0691 41.8673C47.0822 41.7627 47.0386 41.6843 46.941 41.6321C46.8426 41.5798 46.6779 41.5249 46.4479 41.4665C46.1831 41.3968 45.9766 41.3306 45.8277 41.2662C45.4714 41.1381 45.1943 40.9813 44.9966 40.7957C44.7988 40.6102 44.7204 40.3427 44.7631 39.9951C44.8154 39.5657 45.0236 39.2242 45.3877 38.9724C45.7519 38.7197 46.2101 38.5934 46.7616 38.5934C47.1327 38.5934 47.4507 38.6527 47.7146 38.772C47.9786 38.8914 48.1746 39.0578 48.3027 39.2729C48.4299 39.4872 48.4778 39.7312 48.4447 40.0038C48.4412 40.0335 48.4281 40.0579 48.4055 40.0779C48.3828 40.0979 48.3567 40.1084 48.3279 40.1084H47.3966C47.367 40.1084 47.3444 40.0979 47.3261 40.0779C47.3087 40.0579 47.3008 40.0335 47.3043 40.0038C47.32 39.8767 47.2677 39.7695 47.1475 39.6815C47.0273 39.5944 46.86 39.5508 46.6457 39.5508C46.454 39.5508 46.2929 39.5857 46.1631 39.6554C46.0324 39.7251 45.9601 39.8209 45.9453 39.9429C45.9313 40.0587 45.9801 40.1458 46.0916 40.2042C46.2031 40.2626 46.3948 40.3227 46.6657 40.3872C46.7276 40.4046 46.7973 40.4237 46.8766 40.4438C46.955 40.4647 47.0395 40.4891 47.1292 40.5178C47.5264 40.6398 47.8322 40.7966 48.0474 40.9883C48.2617 41.1799 48.3471 41.4587 48.3027 41.8237C48.2504 42.2532 48.0404 42.5886 47.6711 42.829C47.3026 43.0695 46.8304 43.1906 46.2563 43.1906C45.8651 43.1906 45.5323 43.1348 45.2553 43.0251Z" fill="url(#paint2_linear_5711_593)"/>
<path d="M29.8601 3.32171C29.8697 3.33304 29.8731 3.34523 29.8714 3.36004L29.8174 3.80521C29.8156 3.82089 29.8087 3.83309 29.7965 3.84354C29.7843 3.854 29.7712 3.85922 29.7555 3.85922H28.9427C28.927 3.85922 28.9192 3.86706 28.9175 3.88187L28.6082 6.42829C28.6065 6.44397 28.5995 6.45617 28.5873 6.46749C28.5751 6.47795 28.562 6.48317 28.5463 6.48317H28.0149C27.9993 6.48317 27.9879 6.47795 27.9783 6.46749C27.9688 6.45617 27.9653 6.44397 27.967 6.42829L28.2763 3.88187C28.278 3.86706 28.2711 3.85922 28.2562 3.85922H27.4661C27.4513 3.85922 27.4391 3.854 27.4295 3.84354C27.4199 3.83309 27.4164 3.82002 27.4182 3.80521L27.4722 3.36004C27.4739 3.34523 27.4809 3.33217 27.4922 3.32171C27.5044 3.31126 27.5175 3.30603 27.5323 3.30603H29.82C29.8383 3.3069 29.8505 3.31126 29.8601 3.32171Z" fill="#234FFF"/>
<path d="M31.301 4.18249C31.3236 4.19469 31.3297 4.21734 31.3201 4.25044L31.1616 4.76791C31.1537 4.8045 31.132 4.81496 31.0945 4.79928C31.0509 4.78447 30.9987 4.77663 30.9386 4.77663C30.9142 4.77663 30.8802 4.77924 30.8375 4.78534C30.7277 4.79405 30.6302 4.835 30.5465 4.90556C30.462 4.977 30.4133 5.07108 30.3984 5.18956L30.2486 6.42836C30.2469 6.44404 30.2399 6.45624 30.2277 6.46756C30.2155 6.47801 30.2024 6.48324 30.1868 6.48324H29.6553C29.6405 6.48324 29.6283 6.47801 29.6188 6.46756C29.6092 6.45624 29.6057 6.44404 29.6074 6.42836L29.8775 4.20427C29.8792 4.18946 29.8862 4.17639 29.8984 4.16594C29.9106 4.15548 29.9237 4.15026 29.9393 4.15026H30.4708C30.4856 4.15026 30.4978 4.15548 30.5073 4.16594C30.5169 4.17639 30.5204 4.18946 30.5187 4.20427L30.4978 4.37676C30.4969 4.38547 30.4986 4.39244 30.5047 4.39505C30.5108 4.39767 30.5152 4.3968 30.5187 4.3907C30.665 4.20863 30.8419 4.1189 31.0509 4.1189C31.159 4.1189 31.2426 4.1398 31.301 4.18249Z" fill="#234FFF"/>
<path d="M32.998 4.16668C33.0102 4.15623 33.0233 4.151 33.039 4.151H33.5704C33.5852 4.151 33.5974 4.15623 33.607 4.16668C33.6165 4.17714 33.62 4.1902 33.6183 4.20501L33.3482 6.4291C33.3465 6.44478 33.3395 6.45698 33.3273 6.4683C33.3151 6.47876 33.302 6.48398 33.2864 6.48398H32.755C32.7393 6.48398 32.7279 6.47876 32.7184 6.4683C32.7088 6.45698 32.7053 6.44478 32.707 6.4291L32.7253 6.27491C32.7262 6.26619 32.7236 6.2601 32.7184 6.25922C32.7123 6.25748 32.7062 6.26097 32.6992 6.27055C32.5581 6.43433 32.3612 6.51622 32.1068 6.51622C31.8768 6.51622 31.6956 6.44652 31.5649 6.30714C31.4334 6.16775 31.3829 5.97261 31.4134 5.72171L31.5972 4.20588C31.5989 4.19108 31.6059 4.17801 31.6181 4.16755C31.6303 4.1571 31.6433 4.15187 31.659 4.15187H32.1852C32.2009 4.15187 32.2122 4.1571 32.2218 4.16755C32.2314 4.17801 32.2349 4.19108 32.2331 4.20588L32.0685 5.56316C32.0537 5.68425 32.0746 5.78183 32.1303 5.85849C32.1861 5.93428 32.2715 5.97174 32.3865 5.97174C32.4892 5.97174 32.5781 5.94038 32.6522 5.87852C32.7262 5.81667 32.7767 5.73565 32.8046 5.63547L32.978 4.20588C32.9797 4.1902 32.9858 4.17714 32.998 4.16668Z" fill="#234FFF"/>
<path d="M34.2194 6.42923C34.0748 6.37173 33.9676 6.29158 33.8971 6.18879C33.8265 6.08599 33.7986 5.97013 33.8143 5.83945L33.8195 5.79415C33.8213 5.77934 33.8282 5.76627 33.8404 5.75582C33.8526 5.74536 33.8657 5.74014 33.8805 5.74014H34.384C34.3997 5.74014 34.411 5.74536 34.4206 5.75582C34.4302 5.76627 34.4337 5.77934 34.432 5.79415L34.4311 5.79851C34.4232 5.86471 34.4529 5.92134 34.5217 5.96838C34.5905 6.01542 34.6802 6.03895 34.7917 6.03895C34.8945 6.03895 34.9808 6.01891 35.0487 5.97797C35.1176 5.93702 35.155 5.88562 35.1629 5.82551C35.1698 5.77063 35.1472 5.73055 35.0958 5.70268C35.0444 5.67567 34.959 5.64692 34.8388 5.61643C34.7011 5.57984 34.5931 5.54587 34.5156 5.51189C34.33 5.44568 34.1854 5.36379 34.0826 5.26622C33.9798 5.16952 33.9389 5.03014 33.9607 4.84893C33.9877 4.62504 34.0966 4.44732 34.2865 4.31578C34.4764 4.18423 34.7151 4.1189 35.0026 4.1189C35.196 4.1189 35.3615 4.14939 35.5 4.21211C35.6376 4.27396 35.7396 4.36108 35.8067 4.47259C35.8729 4.5841 35.8981 4.71129 35.8807 4.85329C35.879 4.86897 35.872 4.88204 35.8598 4.89249C35.8476 4.90295 35.8345 4.90817 35.8188 4.90817H35.3336C35.3179 4.90817 35.3066 4.90295 35.297 4.89249C35.2874 4.88204 35.284 4.86897 35.2857 4.85329C35.2935 4.78708 35.2665 4.73046 35.2038 4.68515C35.1411 4.63985 35.054 4.6172 34.9416 4.6172C34.8423 4.6172 34.7578 4.6355 34.6898 4.67209C34.6219 4.70868 34.5835 4.75833 34.5766 4.82193C34.5696 4.88291 34.5949 4.92821 34.6532 4.95783C34.7116 4.98832 34.8118 5.01968 34.952 5.05279C34.9843 5.0615 35.0209 5.07195 35.0618 5.08241C35.1027 5.09286 35.1463 5.10593 35.1934 5.12074C35.4007 5.18433 35.5601 5.26622 35.6716 5.36641C35.7831 5.46659 35.8276 5.61208 35.8049 5.80199C35.7779 6.02588 35.6681 6.20098 35.4756 6.32643C35.2831 6.45188 35.0374 6.5146 34.7377 6.5146C34.5365 6.51548 34.3631 6.48673 34.2194 6.42923Z" fill="#234FFF"/>
<path d="M37.6326 4.64764C37.6204 4.65809 37.6074 4.66332 37.5917 4.66332H37.1561C37.1413 4.66332 37.1326 4.67116 37.1308 4.68597L37.0141 5.64861C37.0019 5.74879 37.0132 5.82284 37.0481 5.87075C37.0829 5.91867 37.1456 5.94306 37.2371 5.94306H37.3869C37.4018 5.94306 37.414 5.94829 37.4235 5.95874C37.4331 5.97007 37.4366 5.98226 37.4349 5.99795L37.3826 6.42917C37.3782 6.46228 37.3582 6.48231 37.3207 6.48841C37.1927 6.49451 37.1021 6.49712 37.0472 6.49712C36.7963 6.49712 36.6133 6.45531 36.4992 6.37255C36.3851 6.28891 36.3407 6.13297 36.3659 5.90299L36.514 4.68684C36.5158 4.67203 36.5088 4.66419 36.494 4.66419H36.2353C36.2205 4.66419 36.2083 4.65896 36.1987 4.64851C36.1891 4.63805 36.1856 4.62499 36.1874 4.61018L36.2361 4.20596C36.2379 4.19115 36.2448 4.17808 36.2562 4.16762C36.2675 4.15717 36.2814 4.15194 36.2971 4.15194H36.5559C36.5707 4.15194 36.5794 4.14497 36.5811 4.12929L36.6465 3.58917C36.6482 3.57436 36.6552 3.56129 36.6674 3.55084C36.6796 3.54038 36.6926 3.53516 36.7074 3.53516H37.2162C37.231 3.53516 37.2432 3.54038 37.2528 3.55084C37.2624 3.56129 37.2659 3.57436 37.2641 3.58917L37.1988 4.12929C37.197 4.14497 37.2031 4.15194 37.2188 4.15194H37.6544C37.6692 4.15194 37.6814 4.15717 37.691 4.16762C37.7006 4.17808 37.704 4.19115 37.7023 4.20596L37.6535 4.61018C37.6518 4.62411 37.6448 4.63718 37.6326 4.64764Z" fill="#234FFF"/>
<path d="M39.9874 5.46212C39.9804 5.49784 39.9586 5.51614 39.922 5.51614H38.5195C38.5012 5.51614 38.4942 5.52398 38.4986 5.53879C38.5003 5.59977 38.5099 5.65988 38.5264 5.72086C38.5848 5.88987 38.7346 5.97524 38.9768 5.97524C39.1702 5.97263 39.3331 5.89335 39.4638 5.73916C39.4777 5.72173 39.4926 5.71215 39.5082 5.71215C39.5169 5.71215 39.5274 5.71825 39.5379 5.73045L39.8253 6.05278C39.8384 6.06759 39.8445 6.08152 39.8428 6.09372C39.8419 6.09982 39.8341 6.11202 39.8201 6.13031C39.7051 6.25489 39.5649 6.35072 39.3993 6.41867C39.2338 6.48662 39.057 6.52059 38.8697 6.52059C38.6092 6.52059 38.3966 6.46135 38.2302 6.34374C38.0647 6.22527 37.9549 6.06062 37.9027 5.84892C37.8574 5.69821 37.8495 5.49958 37.8792 5.25479C37.8992 5.08839 37.9401 4.94117 38.0011 4.81485C38.0969 4.60054 38.2389 4.42892 38.4289 4.3026C38.6179 4.17541 38.8322 4.11182 39.0718 4.11182C39.3741 4.11182 39.6067 4.19981 39.7678 4.37491C39.9299 4.55001 40.0126 4.78436 40.0161 5.07794C40.0205 5.19119 40.0109 5.32012 39.9874 5.46212ZM38.5996 4.93158C38.5831 4.97079 38.5665 5.01957 38.55 5.07707C38.5482 5.09275 38.5552 5.09972 38.57 5.09972H39.3549C39.3732 5.09972 39.3802 5.09275 39.3758 5.07707C39.3715 4.98908 39.3688 4.94639 39.3688 4.94988C39.3523 4.85928 39.3131 4.78871 39.2512 4.73906C39.1894 4.6894 39.1084 4.66414 39.0082 4.66414C38.8183 4.66326 38.6815 4.75212 38.5996 4.93158Z" fill="#234FFF"/>
<path d="M42.106 3.32171C42.1182 3.31126 42.1313 3.30603 42.147 3.30603H42.6784C42.6932 3.30603 42.7054 3.31126 42.715 3.32171C42.7246 3.33304 42.7281 3.34523 42.7263 3.36004L42.3543 6.42829C42.3526 6.44397 42.3456 6.45617 42.3334 6.46749C42.3212 6.47795 42.3081 6.48317 42.2925 6.48317H41.7611C41.7462 6.48317 41.7341 6.47795 41.7245 6.46749C41.7149 6.45617 41.7114 6.44397 41.7131 6.42829L41.7314 6.27845C41.7323 6.26974 41.7297 6.26451 41.7245 6.26277C41.7184 6.26103 41.7123 6.26364 41.7053 6.26974C41.5581 6.43613 41.3734 6.51976 41.153 6.51976C40.9413 6.51976 40.7662 6.46053 40.6277 6.34292C40.4892 6.22444 40.3986 6.06327 40.3576 5.85768C40.3254 5.7 40.3219 5.51705 40.3472 5.30797C40.3733 5.09279 40.4229 4.90549 40.497 4.7452C40.5902 4.5518 40.7183 4.3976 40.882 4.28435C41.045 4.1711 41.2375 4.1136 41.4588 4.1136C41.6766 4.1136 41.8368 4.18939 41.9396 4.34098C41.9449 4.34969 41.9501 4.35317 41.9562 4.34969C41.9632 4.34708 41.9667 4.34098 41.9675 4.33139L42.0851 3.36004C42.0869 3.3461 42.0938 3.33304 42.106 3.32171ZM41.8438 5.31668C41.8682 5.1137 41.8543 4.95515 41.802 4.84016C41.7471 4.72168 41.6522 4.66331 41.5197 4.66331C41.3777 4.66331 41.2628 4.72255 41.1756 4.84016C41.0859 4.95863 41.0284 5.11806 41.004 5.32104C40.9822 5.50311 40.9953 5.65382 41.0441 5.77492C41.1042 5.90472 41.2079 5.97006 41.356 5.97006C41.4919 5.97006 41.606 5.90472 41.6975 5.77492C41.7706 5.66341 41.8194 5.51095 41.8438 5.31668Z" fill="#234FFF"/>
<path d="M46.0289 5.30797C46.0036 5.51618 45.9557 5.7 45.8852 5.85768C45.7902 6.06327 45.6595 6.22531 45.4923 6.34292C45.325 6.46053 45.1377 6.51976 44.9286 6.51976C44.7074 6.51976 44.5436 6.43613 44.4373 6.26974C44.4321 6.26364 44.426 6.26103 44.4199 6.26277C44.4138 6.26451 44.4103 6.26974 44.4085 6.27845L44.3902 6.42829C44.3885 6.44397 44.3815 6.45617 44.3702 6.46749C44.358 6.47795 44.3449 6.48317 44.3293 6.48317H43.7979C43.7822 6.48317 43.7709 6.47795 43.7613 6.46749C43.7517 6.45617 43.7482 6.44397 43.7499 6.42829L44.1219 3.36004C44.1237 3.34523 44.1306 3.33217 44.1428 3.32171C44.1542 3.31126 44.1681 3.30603 44.1829 3.30603H44.7143C44.7291 3.30603 44.7413 3.31126 44.7509 3.32171C44.7596 3.33304 44.764 3.34523 44.7622 3.36004L44.6446 4.33139C44.6438 4.34011 44.6455 4.34708 44.6516 4.34969C44.6568 4.3523 44.6638 4.34969 44.6708 4.34098C44.8075 4.19026 44.9844 4.1136 45.2022 4.1136C45.4235 4.1136 45.602 4.17023 45.7379 4.28435C45.8738 4.39847 45.9644 4.5518 46.0115 4.7452C46.0498 4.90288 46.0559 5.09018 46.0289 5.30797ZM45.3651 5.32104C45.3903 5.11283 45.3738 4.95167 45.3146 4.84016C45.2562 4.72168 45.156 4.66331 45.014 4.66331C44.8807 4.66331 44.7727 4.72255 44.6882 4.84016C44.6072 4.95515 44.5549 5.1137 44.5305 5.31668C44.5061 5.51967 44.5174 5.67212 44.5654 5.77492C44.622 5.90472 44.7204 5.97006 44.8598 5.97006C45.0079 5.97006 45.1264 5.90472 45.2144 5.77492C45.2919 5.66079 45.3424 5.50921 45.3651 5.32104Z" fill="#234FFF"/>
<path d="M46.0603 7.37093C46.0559 7.36048 46.0542 7.34741 46.0559 7.3326L46.1064 6.91444C46.1082 6.89876 46.1152 6.88656 46.1274 6.87611C46.1396 6.86566 46.1526 6.86043 46.1674 6.86043C46.2946 6.85782 46.3965 6.84736 46.4732 6.82907C46.5499 6.81077 46.6126 6.77593 46.6631 6.72453C46.7137 6.67313 46.7563 6.59734 46.7929 6.49715C46.7964 6.49105 46.7982 6.48147 46.7964 6.47015L46.3269 4.20947C46.3242 4.20337 46.3242 4.1964 46.3251 4.18682C46.3286 4.15981 46.3469 4.14587 46.38 4.14587H46.9471C46.9802 4.14587 46.9994 4.16068 47.0055 4.19117L47.2085 5.6617C47.2102 5.67041 47.2146 5.67564 47.2207 5.67564C47.2268 5.67564 47.232 5.67129 47.2363 5.6617L47.7965 4.19117C47.8096 4.16068 47.8322 4.14587 47.8653 4.14587H48.4194C48.4377 4.14587 48.4499 4.1511 48.456 4.16155C48.4621 4.17288 48.4612 4.18769 48.4525 4.20947L47.3801 6.57033C47.2782 6.7916 47.1806 6.95626 47.0883 7.06777C46.9959 7.17753 46.8757 7.25855 46.7276 7.31082C46.5795 7.36222 46.3748 7.38836 46.1143 7.38836H46.0821C46.0716 7.38661 46.0646 7.38138 46.0603 7.37093Z" fill="#234FFF"/>
<path d="M49.8472 11.2346C49.8359 11.2346 49.8246 11.2337 49.8124 11.2328C49.6573 11.2137 49.5467 11.0725 49.5658 10.9183L50.5041 3.18761C50.559 2.73286 50.4353 2.3086 50.1556 1.99237C49.8786 1.68049 49.4796 1.508 49.0309 1.508H27.4696C26.5235 1.508 25.6602 2.27898 25.5452 3.22594L25.0887 6.98764C25.0347 7.43454 25.1557 7.85096 25.431 8.16197C25.7028 8.46862 26.0949 8.63762 26.5357 8.63762H41.8473C42.0032 8.63762 42.1304 8.76394 42.1304 8.92075C42.1304 9.07756 42.0041 9.20388 41.8473 9.20388H26.5357C25.9311 9.20388 25.3884 8.96693 25.0077 8.53744C24.6235 8.1036 24.4527 7.5295 24.5268 6.92056L24.9833 3.15886C25.1314 1.93748 26.2465 0.943481 27.4696 0.943481H49.0318C49.6442 0.943481 50.1939 1.18305 50.5799 1.61864C50.9684 2.0577 51.1418 2.63964 51.0669 3.2573L50.1286 10.988C50.1103 11.1292 49.9883 11.2346 49.8472 11.2346Z" fill="url(#paint3_linear_5711_593)"/>
<path d="M98.6988 24.4658C98.7362 24.5094 98.7484 24.5625 98.7362 24.6252L98.5114 26.439C98.4984 26.5017 98.4705 26.5549 98.4269 26.5984C98.3834 26.642 98.3302 26.6638 98.2675 26.6638H95.7803C95.7307 26.6638 95.6932 26.6951 95.668 26.757L95.3692 29.2816C95.3561 29.3443 95.3282 29.3975 95.2846 29.441C95.2411 29.4846 95.1879 29.5064 95.1252 29.5064H93.3855C93.2479 29.5064 93.1799 29.4314 93.1799 29.2816L93.4979 26.757C93.4979 26.6951 93.4726 26.6638 93.423 26.6638H90.9358C90.8731 26.6638 90.8234 26.642 90.786 26.5984C90.7485 26.5549 90.7363 26.5017 90.7485 26.439L90.9732 24.6252C90.9732 24.5625 90.9985 24.5102 91.0482 24.4658C91.0978 24.4222 91.1536 24.4005 91.2163 24.4005H93.7044C93.7288 24.4005 93.7514 24.3909 93.7697 24.3726C93.7889 24.3543 93.7976 24.3325 93.7976 24.3072L94.1155 21.726C94.1277 21.6641 94.1556 21.611 94.2 21.5666C94.2436 21.523 94.2967 21.5012 94.3586 21.5012H96.0983C96.1602 21.5012 96.2107 21.523 96.2482 21.5666C96.2856 21.6101 96.2978 21.6633 96.2856 21.726L95.9676 24.3072C95.9676 24.37 95.9981 24.4005 96.0609 24.4005H98.548C98.6116 24.4005 98.6613 24.4222 98.6988 24.4658Z" fill="url(#paint4_linear_5711_593)"/>
<path d="M19.1238 0.882492C19.3242 0.882492 19.4862 0.953055 19.6108 1.09331C19.7345 1.23531 19.7841 1.40519 19.7598 1.60643L14.8089 42.3936C14.7845 42.5957 14.693 42.7656 14.5354 42.9067C14.3768 43.0487 14.1974 43.1175 13.997 43.1175H5.08583C4.88372 43.1175 4.72255 43.0478 4.59885 42.9067C4.47427 42.7664 4.42548 42.5957 4.44987 42.3936L8.46334 9.32932C8.47292 9.24917 8.44243 9.16902 8.37187 9.08801C8.32395 9.03487 8.27342 9.00786 8.22028 9.00786C8.19328 9.00786 8.16627 9.01396 8.13839 9.02703L1.96792 10.6561L1.71877 10.7171C1.35637 10.7171 1.20217 10.4967 1.25618 10.0533L1.70483 4.86459C1.75362 4.46299 1.96879 4.18073 2.35037 4.01956L9.04441 1.06282C9.25959 0.941729 9.56885 0.88162 9.97133 0.88162H19.1238M19.1238 0H9.97133C9.43208 0 9.00172 0.0888595 8.65587 0.270062L1.99929 3.21025C1.3311 3.49512 0.915553 4.04483 0.829307 4.75831L0.827566 4.77312L0.825825 4.78793L0.378044 9.96353C0.321418 10.461 0.428571 10.8661 0.696019 11.1684C0.870252 11.3644 1.18823 11.5987 1.7179 11.5987H1.82418L1.92698 11.5734L2.17613 11.5125L2.18397 11.5107L2.19181 11.509L7.47892 10.1134L3.57348 42.2873C3.5186 42.742 3.64318 43.1576 3.93589 43.4886C4.22424 43.8179 4.63282 44 5.08583 44H13.997C14.4143 44 14.8037 43.8493 15.1225 43.5653C15.4396 43.2822 15.6348 42.9137 15.6844 42.5007L20.6353 1.71358C20.6902 1.26232 20.5656 0.847645 20.2755 0.51486L20.2729 0.512246L20.2703 0.509633C19.981 0.180332 19.5733 0 19.1238 0Z" fill="#234FFF"/>
<defs>
<linearGradient id="paint0_linear_5711_593" x1="1.24528" y1="21.9998" x2="19.7655" y2="21.9998" gradientUnits="userSpaceOnUse">
<stop offset="4.99306e-09" stop-color="#FF4200"/>
<stop offset="1" stop-color="#FF7300"/>
</linearGradient>
<linearGradient id="paint1_linear_5711_593" x1="22.1566" y1="22.8551" x2="88.4743" y2="22.8551" gradientUnits="userSpaceOnUse">
<stop stop-color="#1737AA"/>
<stop offset="1" stop-color="#2E51FF"/>
</linearGradient>
<linearGradient id="paint2_linear_5711_593" x1="21.037" y1="39.9867" x2="48.4532" y2="39.9867" gradientUnits="userSpaceOnUse">
<stop stop-color="#1737AA"/>
<stop offset="1" stop-color="#2E51FF"/>
</linearGradient>
<linearGradient id="paint3_linear_5711_593" x1="24.5098" y1="6.08832" x2="51.0831" y2="6.08832" gradientUnits="userSpaceOnUse">
<stop offset="4.99306e-09" stop-color="#FF4200"/>
<stop offset="1" stop-color="#FF7300"/>
</linearGradient>
<linearGradient id="paint4_linear_5711_593" x1="90.7452" y1="25.504" x2="98.7409" y2="25.504" gradientUnits="userSpaceOnUse">
<stop stop-color="#1737AA"/>
<stop offset="1" stop-color="#2E51FF"/>
</linearGradient>
</defs>
</svg>
